<?xml version="1.0"?>
<svg xmlns="http://www.w3.org/2000/svg" width="11in" height="3.71in" viewBox="0 0 279.4 94.234">
  <defs>
    <clipPath clipPathUnits="userSpaceOnUse" id="a">
      <path d="M72.983 357.639h18.68v18.68h-18.68z"/>
    </clipPath>
    <clipPath clipPathUnits="userSpaceOnUse" id="b">
      <path d="M92.647 357.639h18.68v18.68h-18.68z"/>
    </clipPath>
    <clipPath clipPathUnits="userSpaceOnUse" id="c">
      <path d="M93.63 358.622h16.715v16.714H93.63z"/>
    </clipPath>
    <clipPath clipPathUnits="userSpaceOnUse" id="d">
      <path d="M112.31 357.639h18.682v18.68H112.31z"/>
    </clipPath>
    <clipPath clipPathUnits="userSpaceOnUse" id="e">
      <path d="M113.294 358.622h16.714v16.714h-16.714z"/>
    </clipPath>
    <clipPath clipPathUnits="userSpaceOnUse" id="f">
      <path d="M131.975 357.639h18.68v18.68h-18.68z"/>
    </clipPath>
    <clipPath clipPathUnits="userSpaceOnUse" id="g">
      <path d="M132.958 358.622h16.714v16.714h-16.714z"/>
    </clipPath>
    <clipPath clipPathUnits="userSpaceOnUse" id="h">
      <path d="M151.639 357.639h18.68v18.68h-18.68z"/>
    </clipPath>
    <clipPath clipPathUnits="userSpaceOnUse" id="i">
      <path d="M152.622 358.622h16.714v16.714h-16.714z"/>
    </clipPath>
    <clipPath clipPathUnits="userSpaceOnUse" id="j">
      <path d="M171.303 357.639h18.68v18.68h-18.68z"/>
    </clipPath>
    <clipPath clipPathUnits="userSpaceOnUse" id="k">
      <path d="M172.286 358.622H189v16.714h-16.714z"/>
    </clipPath>
    <clipPath clipPathUnits="userSpaceOnUse" id="l">
      <path d="M190.966 357.639h18.681v18.68h-18.68z"/>
    </clipPath>
    <clipPath clipPathUnits="userSpaceOnUse" id="m">
      <path d="M191.95 358.622h16.714v16.714H191.95z"/>
    </clipPath>
    <clipPath clipPathUnits="userSpaceOnUse" id="n">
      <path d="M210.63 357.639h18.681v18.68h-18.68z"/>
    </clipPath>
    <clipPath clipPathUnits="userSpaceOnUse" id="o">
      <path d="M211.613 358.622h16.715v16.714h-16.715z"/>
    </clipPath>
    <clipPath clipPathUnits="userSpaceOnUse" id="p">
      <path d="M230.294 357.639h18.68v18.68h-18.68z"/>
    </clipPath>
    <clipPath clipPathUnits="userSpaceOnUse" id="q">
      <path d="M231.277 358.622h16.715v16.714h-16.715z"/>
    </clipPath>
    <clipPath clipPathUnits="userSpaceOnUse" id="r">
      <path d="M249.958 357.639h18.68v18.68h-18.68z"/>
    </clipPath>
    <clipPath clipPathUnits="userSpaceOnUse" id="s">
      <path d="M250.941 358.622h16.714v16.714h-16.714z"/>
    </clipPath>
    <clipPath clipPathUnits="userSpaceOnUse" id="t">
      <path d="M269.622 357.639h18.68v18.68h-18.68z"/>
    </clipPath>
    <clipPath clipPathUnits="userSpaceOnUse" id="u">
      <path d="M270.605 358.622h16.714v16.714h-16.714z"/>
    </clipPath>
    <clipPath clipPathUnits="userSpaceOnUse" id="v">
      <path d="M289.286 357.639h18.68v18.68h-18.68z"/>
    </clipPath>
    <clipPath clipPathUnits="userSpaceOnUse" id="w">
      <path d="M308.95 357.639h18.68v18.68h-18.68z"/>
    </clipPath>
    <clipPath clipPathUnits="userSpaceOnUse" id="x">
      <path d="M318.781 337.975h18.681v18.68h-18.68z"/>
    </clipPath>
    <clipPath clipPathUnits="userSpaceOnUse" id="y">
      <path d="M319.765 338.958h16.714v16.714h-16.714z"/>
    </clipPath>
    <clipPath clipPathUnits="userSpaceOnUse" id="z">
      <path d="M299.118 337.975h18.68v18.68h-18.68z"/>
    </clipPath>
    <clipPath clipPathUnits="userSpaceOnUse" id="A">
      <path d="M300.1 338.958h16.715v16.714h-16.714z"/>
    </clipPath>
    <clipPath clipPathUnits="userSpaceOnUse" id="B">
      <path d="M279.454 337.975h18.68v18.68h-18.68z"/>
    </clipPath>
    <clipPath clipPathUnits="userSpaceOnUse" id="C">
      <path d="M259.79 337.975h18.68v18.68h-18.68z"/>
    </clipPath>
    <clipPath clipPathUnits="userSpaceOnUse" id="D">
      <path d="M240.126 337.975h18.68v18.68h-18.68z"/>
    </clipPath>
    <clipPath clipPathUnits="userSpaceOnUse" id="E">
      <path d="M220.462 337.975h18.68v18.68h-18.68z"/>
    </clipPath>
    <clipPath clipPathUnits="userSpaceOnUse" id="F">
      <path d="M200.798 337.975h18.681v18.68h-18.68z"/>
    </clipPath>
    <clipPath clipPathUnits="userSpaceOnUse" id="G">
      <path d="M181.135 337.975h18.68v18.68h-18.68z"/>
    </clipPath>
    <clipPath clipPathUnits="userSpaceOnUse" id="H">
      <path d="M161.47 337.975h18.681v18.68h-18.68z"/>
    </clipPath>
    <clipPath clipPathUnits="userSpaceOnUse" id="I">
      <path d="M141.807 337.975h18.68v18.68h-18.68z"/>
    </clipPath>
    <clipPath clipPathUnits="userSpaceOnUse" id="J">
      <path d="M122.143 337.975h18.68v18.68h-18.68z"/>
    </clipPath>
    <clipPath clipPathUnits="userSpaceOnUse" id="K">
      <path d="M102.479 337.975h18.68v18.68h-18.68z"/>
    </clipPath>
    <clipPath clipPathUnits="userSpaceOnUse" id="L">
      <path d="M107.395 318.31h18.68v18.682h-18.68z"/>
    </clipPath>
    <clipPath clipPathUnits="userSpaceOnUse" id="M">
      <path d="M127.059 318.31h18.68v18.682h-18.68z"/>
    </clipPath>
    <clipPath clipPathUnits="userSpaceOnUse" id="N">
      <path d="M146.723 318.31h18.68v18.682h-18.68z"/>
    </clipPath>
    <clipPath clipPathUnits="userSpaceOnUse" id="O">
      <path d="M166.387 318.31h18.68v18.682h-18.68z"/>
    </clipPath>
    <clipPath clipPathUnits="userSpaceOnUse" id="P">
      <path d="M186.05 318.31h18.681v18.682h-18.68z"/>
    </clipPath>
    <clipPath clipPathUnits="userSpaceOnUse" id="Q">
      <path d="M205.714 318.31h18.681v18.682h-18.68z"/>
    </clipPath>
    <clipPath clipPathUnits="userSpaceOnUse" id="R">
      <path d="M225.378 318.31h18.68v18.682h-18.68z"/>
    </clipPath>
    <clipPath clipPathUnits="userSpaceOnUse" id="S">
      <path d="M245.042 318.31h18.68v18.682h-18.68z"/>
    </clipPath>
    <clipPath clipPathUnits="userSpaceOnUse" id="T">
      <path d="M264.706 318.31h18.68v18.682h-18.68z"/>
    </clipPath>
    <clipPath clipPathUnits="userSpaceOnUse" id="U">
      <path d="M284.37 318.31h18.68v18.682h-18.68z"/>
    </clipPath>
    <clipPath clipPathUnits="userSpaceOnUse" id="V">
      <path d="M285.353 319.294h16.714v16.714h-16.714z"/>
    </clipPath>
    <clipPath clipPathUnits="userSpaceOnUse" id="W">
      <path d="M304.034 318.31h18.68v18.682h-18.68z"/>
    </clipPath>
    <clipPath clipPathUnits="userSpaceOnUse" id="X">
      <path d="M305.017 319.294h16.714v16.714h-16.714z"/>
    </clipPath>
    <clipPath clipPathUnits="userSpaceOnUse" id="Y">
      <path d="M294.202 298.647h18.68v18.68h-18.68z"/>
    </clipPath>
    <clipPath clipPathUnits="userSpaceOnUse" id="Z">
      <path d="M274.538 298.647h18.68v18.68h-18.68z"/>
    </clipPath>
    <clipPath clipPathUnits="userSpaceOnUse" id="aa">
      <path d="M254.874 298.647h18.68v18.68h-18.68z"/>
    </clipPath>
    <clipPath clipPathUnits="userSpaceOnUse" id="ab">
      <path d="M235.21 298.647h18.68v18.68h-18.68z"/>
    </clipPath>
    <clipPath clipPathUnits="userSpaceOnUse" id="ac">
      <path d="M215.546 298.647h18.68v18.68h-18.68z"/>
    </clipPath>
    <clipPath clipPathUnits="userSpaceOnUse" id="ad">
      <path d="M195.882 298.647h18.681v18.68h-18.68z"/>
    </clipPath>
    <clipPath clipPathUnits="userSpaceOnUse" id="ae">
      <path d="M176.219 298.647h18.68v18.68h-18.68z"/>
    </clipPath>
    <clipPath clipPathUnits="userSpaceOnUse" id="af">
      <path d="M156.555 298.647h18.68v18.68h-18.68z"/>
    </clipPath>
    <clipPath clipPathUnits="userSpaceOnUse" id="ag">
      <path d="M136.89 298.647h18.681v18.68h-18.68z"/>
    </clipPath>
    <clipPath clipPathUnits="userSpaceOnUse" id="ah">
      <path d="M117.227 298.647h18.68v18.68h-18.68z"/>
    </clipPath>
    <clipPath clipPathUnits="userSpaceOnUse" id="ai">
      <path d="M72.983 337.975h28.513v18.68H72.983z"/>
    </clipPath>
    <clipPath clipPathUnits="userSpaceOnUse" id="aj">
      <path d="M73.966 338.958h26.547v16.714H73.966z"/>
    </clipPath>
    <clipPath clipPathUnits="userSpaceOnUse" id="ak">
      <path d="M72.983 318.31h33.429v18.682H72.983z"/>
    </clipPath>
    <clipPath clipPathUnits="userSpaceOnUse" id="al">
      <path d="M73.966 319.294h31.463v16.714H73.966z"/>
    </clipPath>
    <clipPath clipPathUnits="userSpaceOnUse" id="am">
      <path d="M72.983 298.647h43.26v18.68h-43.26z"/>
    </clipPath>
    <clipPath clipPathUnits="userSpaceOnUse" id="an">
      <path d="M73.966 299.63h41.295v16.715H73.966z"/>
    </clipPath>
    <clipPath clipPathUnits="userSpaceOnUse" id="ao">
      <path d="M313.865 298.647h48.177v18.68h-48.176z"/>
    </clipPath>
    <clipPath clipPathUnits="userSpaceOnUse" id="ap">
      <path d="M314.849 299.63h46.21v16.715h-46.21z"/>
    </clipPath>
    <clipPath clipPathUnits="userSpaceOnUse" id="aq">
      <path d="M72.983 278.983H96.58v18.68H72.983z"/>
    </clipPath>
    <clipPath clipPathUnits="userSpaceOnUse" id="ar">
      <path d="M73.966 279.966h21.63v16.715h-21.63z"/>
    </clipPath>
    <clipPath clipPathUnits="userSpaceOnUse" id="as">
      <path d="M97.563 278.983h23.597v18.68H97.563z"/>
    </clipPath>
    <clipPath clipPathUnits="userSpaceOnUse" id="at">
      <path d="M98.546 279.966h21.63v16.715h-21.63z"/>
    </clipPath>
    <clipPath clipPathUnits="userSpaceOnUse" id="au">
      <path d="M122.143 278.983h23.597v18.68h-23.597z"/>
    </clipPath>
    <clipPath clipPathUnits="userSpaceOnUse" id="av">
      <path d="M123.126 279.966h21.63v16.715h-21.63z"/>
    </clipPath>
    <clipPath clipPathUnits="userSpaceOnUse" id="aw">
      <path d="M289.286 278.983h23.596v18.68h-23.596z"/>
    </clipPath>
    <clipPath clipPathUnits="userSpaceOnUse" id="ax">
      <path d="M290.269 279.966h21.63v16.715h-21.63z"/>
    </clipPath>
    <clipPath clipPathUnits="userSpaceOnUse" id="ay">
      <path d="M313.865 278.983h23.597v18.68h-23.596z"/>
    </clipPath>
    <clipPath clipPathUnits="userSpaceOnUse" id="az">
      <path d="M314.849 279.966h21.63v16.715h-21.63z"/>
    </clipPath>
    <clipPath clipPathUnits="userSpaceOnUse" id="aA">
      <path d="M338.445 278.983h23.597v18.68h-23.597z"/>
    </clipPath>
    <clipPath clipPathUnits="userSpaceOnUse" id="aB">
      <path d="M339.429 279.966h21.63v16.715h-21.63z"/>
    </clipPath>
    <clipPath clipPathUnits="userSpaceOnUse" id="aC">
      <path d="M328.613 357.639h33.429v18.68h-33.429z"/>
    </clipPath>
    <clipPath clipPathUnits="userSpaceOnUse" id="aD">
      <path d="M329.597 358.622h31.462v16.714h-31.462z"/>
    </clipPath>
    <clipPath clipPathUnits="userSpaceOnUse" id="aE">
      <path d="M338.445 337.975h23.597v18.68h-23.597z"/>
    </clipPath>
    <clipPath clipPathUnits="userSpaceOnUse" id="aF">
      <path d="M323.697 318.31h38.345v18.682h-38.344z"/>
    </clipPath>
    <clipPath clipPathUnits="userSpaceOnUse" id="aG">
      <path d="M324.68 319.294h36.379v16.714H324.68z"/>
    </clipPath>
    <clipPath clipPathUnits="userSpaceOnUse" id="aH">
      <path d="M146.723 278.983h141.58v18.68h-141.58z"/>
    </clipPath>
  </defs>
  <g stroke-width=".365">
    <g clip-path="url(#a)" transform="matrix(.96658 0 0 -.96658 -70.544 363.744)">
      <path d="M72.983 357.639h18.68v18.68h-18.68z" fill="#fff"/>
      <path d="M73.983 358.639h16.68v16.68h-16.68z" fill="none" stroke="#000" stroke-width=".73" stroke-miterlimit="10"/>
    </g>
    <g clip-path="url(#b)" transform="matrix(.96658 0 0 -.96658 -70.544 363.744)">
      <path d="M92.647 357.639h18.68v18.68h-18.68z" fill="#fff"/>
      <path d="M93.647 358.639h16.68v16.68h-16.68z" fill="none" stroke="#000" stroke-width=".73" stroke-miterlimit="10"/>
    </g>
    <g clip-path="url(#c)" transform="matrix(.96658 0 0 -.96658 -70.544 363.744)">
      <text transform="matrix(1 0 0 -1 99.527 365.236)" style="-inkscape-font-specification:ArialUnicodeMS" font-weight="400" font-size="8.849" font-family="'Arial Unicode MS'" stroke-width=".133">
        <tspan x="0" y="0" stroke-width=".365">1</tspan>
      </text>
    </g>
    <g clip-path="url(#d)" transform="matrix(.96658 0 0 -.96658 -70.544 363.744)">
      <path d="M112.31 357.639h18.682v18.68H112.31z" fill="#fff"/>
      <path d="M113.31 358.639h16.682v16.68H113.31z" fill="none" stroke="#000" stroke-width=".73" stroke-miterlimit="10"/>
    </g>
    <g clip-path="url(#e)" transform="matrix(.96658 0 0 -.96658 -70.544 363.744)">
      <text transform="matrix(1 0 0 -1 119.19 365.236)" style="-inkscape-font-specification:ArialUnicodeMS" font-weight="400" font-size="8.849" font-family="'Arial Unicode MS'" stroke-width=".133">
        <tspan x="0" y="0" stroke-width=".365">2</tspan>
      </text>
    </g>
    <g clip-path="url(#f)" transform="matrix(.96658 0 0 -.96658 -70.544 363.744)">
      <path d="M131.975 357.639h18.68v18.68h-18.68z" fill="#fff"/>
      <path d="M132.975 358.639h16.68v16.68h-16.68z" fill="none" stroke="#000" stroke-width=".73" stroke-miterlimit="10"/>
    </g>
    <g clip-path="url(#g)" transform="matrix(.96658 0 0 -.96658 -70.544 363.744)">
      <text transform="matrix(1 0 0 -1 138.855 365.236)" style="-inkscape-font-specification:ArialUnicodeMS" font-weight="400" font-size="8.849" font-family="'Arial Unicode MS'" stroke-width=".133">
        <tspan x="0" y="0" stroke-width=".365">3</tspan>
      </text>
    </g>
    <g clip-path="url(#h)" transform="matrix(.96658 0 0 -.96658 -70.544 363.744)">
      <path d="M151.639 357.639h18.68v18.68h-18.68z" fill="#fff"/>
      <path d="M152.639 358.639h16.68v16.68h-16.68z" fill="none" stroke="#000" stroke-width=".73" stroke-miterlimit="10"/>
    </g>
    <g clip-path="url(#i)" transform="matrix(.96658 0 0 -.96658 -70.544 363.744)">
      <text transform="matrix(1 0 0 -1 158.518 365.236)" style="-inkscape-font-specification:ArialUnicodeMS" font-weight="400" font-size="8.849" font-family="'Arial Unicode MS'" stroke-width=".133">
        <tspan x="0" y="0" stroke-width=".365">4</tspan>
      </text>
    </g>
    <g clip-path="url(#j)" transform="matrix(.96658 0 0 -.96658 -70.544 363.744)">
      <path d="M171.303 357.639h18.68v18.68h-18.68z" fill="#fff"/>
      <path d="M172.303 358.639h16.68v16.68h-16.68z" fill="none" stroke="#000" stroke-width=".73" stroke-miterlimit="10"/>
    </g>
    <g clip-path="url(#k)" transform="matrix(.96658 0 0 -.96658 -70.544 363.744)">
      <text transform="matrix(1 0 0 -1 178.182 365.236)" style="-inkscape-font-specification:ArialUnicodeMS" font-weight="400" font-size="8.849" font-family="'Arial Unicode MS'" stroke-width=".133">
        <tspan x="0" y="0" stroke-width=".365">5</tspan>
      </text>
    </g>
    <g clip-path="url(#l)" transform="matrix(.96658 0 0 -.96658 -70.544 363.744)">
      <path d="M190.966 357.639h18.681v18.68h-18.68z" fill="#fff"/>
      <path d="M191.966 358.639h16.681v16.68h-16.68z" fill="none" stroke="#000" stroke-width=".73" stroke-miterlimit="10"/>
    </g>
    <g clip-path="url(#m)" transform="matrix(.96658 0 0 -.96658 -70.544 363.744)">
      <text transform="matrix(1 0 0 -1 197.846 365.236)" style="-inkscape-font-specification:ArialUnicodeMS" font-weight="400" font-size="8.849" font-family="'Arial Unicode MS'" stroke-width=".133">
        <tspan x="0" y="0" stroke-width=".365">6</tspan>
      </text>
    </g>
    <g clip-path="url(#n)" transform="matrix(.96658 0 0 -.96658 -70.544 363.744)">
      <path d="M210.63 357.639h18.681v18.68h-18.68z" fill="#fff"/>
      <path d="M211.63 358.639h16.681v16.68h-16.68z" fill="none" stroke="#000" stroke-width=".73" stroke-miterlimit="10"/>
    </g>
    <g clip-path="url(#o)" transform="matrix(.96658 0 0 -.96658 -70.544 363.744)">
      <text transform="matrix(1 0 0 -1 217.51 365.236)" style="-inkscape-font-specification:ArialUnicodeMS" font-weight="400" font-size="8.849" font-family="'Arial Unicode MS'" stroke-width=".133">
        <tspan x="0" y="0" stroke-width=".365">7</tspan>
      </text>
    </g>
    <g clip-path="url(#p)" transform="matrix(.96658 0 0 -.96658 -70.544 363.744)">
      <path d="M230.294 357.639h18.68v18.68h-18.68z" fill="#fff"/>
      <path d="M231.294 358.639h16.68v16.68h-16.68z" fill="none" stroke="#000" stroke-width=".73" stroke-miterlimit="10"/>
    </g>
    <g clip-path="url(#q)" transform="matrix(.96658 0 0 -.96658 -70.544 363.744)">
      <text transform="matrix(1 0 0 -1 237.174 365.236)" style="-inkscape-font-specification:ArialUnicodeMS" font-weight="400" font-size="8.849" font-family="'Arial Unicode MS'" stroke-width=".133">
        <tspan x="0" y="0" stroke-width=".365">8</tspan>
      </text>
    </g>
    <g clip-path="url(#r)" transform="matrix(.96658 0 0 -.96658 -70.544 363.744)">
      <path d="M249.958 357.639h18.68v18.68h-18.68z" fill="#fff"/>
      <path d="M250.958 358.639h16.68v16.68h-16.68z" fill="none" stroke="#000" stroke-width=".73" stroke-miterlimit="10"/>
    </g>
    <g clip-path="url(#s)" transform="matrix(.96658 0 0 -.96658 -70.544 363.744)">
      <text transform="matrix(1 0 0 -1 256.838 365.236)" style="-inkscape-font-specification:ArialUnicodeMS" font-weight="400" font-size="8.849" font-family="'Arial Unicode MS'" stroke-width=".133">
        <tspan x="0" y="0" stroke-width=".365">9</tspan>
      </text>
    </g>
    <g clip-path="url(#t)" transform="matrix(.96658 0 0 -.96658 -70.544 363.744)">
      <path d="M269.622 357.639h18.68v18.68h-18.68z" fill="#fff"/>
      <path d="M270.622 358.639h16.68v16.68h-16.68z" fill="none" stroke="#000" stroke-width=".73" stroke-miterlimit="10"/>
    </g>
    <g clip-path="url(#u)" transform="matrix(.96658 0 0 -.96658 -70.544 363.744)">
      <text transform="matrix(1 0 0 -1 276.502 365.236)" style="-inkscape-font-specification:ArialUnicodeMS" font-weight="400" font-size="8.849" font-family="'Arial Unicode MS'" stroke-width=".133">
        <tspan x="0" y="0" stroke-width=".365">0</tspan>
      </text>
    </g>
    <g clip-path="url(#v)" transform="matrix(.96658 0 0 -.96658 -70.544 363.744)">
      <path d="M289.286 357.639h18.68v18.68h-18.68z" fill="#fff"/>
      <path d="M290.286 358.639h16.68v16.68h-16.68z" fill="none" stroke="#000" stroke-width=".73" stroke-miterlimit="10"/>
    </g>
    <g clip-path="url(#w)" transform="matrix(.96658 0 0 -.96658 -70.544 363.744)">
      <path d="M308.95 357.639h18.68v18.68h-18.68z" fill="#fff"/>
      <path d="M309.95 358.639h16.68v16.68h-16.68z" fill="none" stroke="#000" stroke-width=".73" stroke-miterlimit="10"/>
    </g>
    <g clip-path="url(#x)" transform="matrix(.96658 0 0 -.96658 -70.544 363.744)">
      <path d="M318.781 337.975h18.681v18.68h-18.68z" fill="#fff"/>
      <path d="M319.781 338.975h16.681v16.68h-16.68z" fill="none" stroke="#000" stroke-width=".73" stroke-miterlimit="10"/>
    </g>
    <g clip-path="url(#y)" transform="matrix(.96658 0 0 -.96658 -70.544 363.744)">
      <text transform="matrix(1 0 0 -1 326.893 345.572)" style="-inkscape-font-specification:ArialUnicodeMS" font-weight="400" font-size="8.849" font-family="'Arial Unicode MS'" stroke-width=".133">
        <tspan x="0" y="0" stroke-width=".365">]</tspan>
      </text>
    </g>
    <g clip-path="url(#z)" transform="matrix(.96658 0 0 -.96658 -70.544 363.744)">
      <path d="M299.118 337.975h18.68v18.68h-18.68z" fill="#fff"/>
      <path d="M300.118 338.975h16.68v16.68h-16.68z" fill="none" stroke="#000" stroke-width=".73" stroke-miterlimit="10"/>
    </g>
    <g clip-path="url(#A)" transform="matrix(.96658 0 0 -.96658 -70.544 363.744)">
      <text transform="matrix(1 0 0 -1 307.229 345.572)" style="-inkscape-font-specification:ArialUnicodeMS" font-weight="400" font-size="8.849" font-family="'Arial Unicode MS'" stroke-width=".133">
        <tspan x="0" y="0" stroke-width=".365">[</tspan>
      </text>
    </g>
    <g clip-path="url(#B)" transform="matrix(.96658 0 0 -.96658 -70.544 363.744)">
      <path d="M279.454 337.975h18.68v18.68h-18.68z" fill="#fff"/>
      <path d="M280.454 338.975h16.68v16.68h-16.68z" fill="none" stroke="#000" stroke-width=".73" stroke-miterlimit="10"/>
    </g>
    <g clip-path="url(#C)" transform="matrix(.96658 0 0 -.96658 -70.544 363.744)">
      <path d="M259.79 337.975h18.68v18.68h-18.68z" fill="#fff"/>
      <path d="M260.79 338.975h16.68v16.68h-16.68z" fill="none" stroke="#000" stroke-width=".73" stroke-miterlimit="10"/>
    </g>
    <g clip-path="url(#D)" transform="matrix(.96658 0 0 -.96658 -70.544 363.744)">
      <path d="M240.126 337.975h18.68v18.68h-18.68z" fill="#fff"/>
      <path d="M241.126 338.975h16.68v16.68h-16.68z" fill="none" stroke="#000" stroke-width=".73" stroke-miterlimit="10"/>
    </g>
    <g clip-path="url(#E)" transform="matrix(.96658 0 0 -.96658 -70.544 363.744)">
      <path d="M220.462 337.975h18.68v18.68h-18.68z" fill="#fff"/>
      <path d="M221.462 338.975h16.68v16.68h-16.68z" fill="none" stroke="#000" stroke-width=".73" stroke-miterlimit="10"/>
    </g>
    <g clip-path="url(#F)" transform="matrix(.96658 0 0 -.96658 -70.544 363.744)">
      <path d="M200.798 337.975h18.681v18.68h-18.68z" fill="#fff"/>
      <path d="M201.798 338.975h16.681v16.68h-16.68z" fill="none" stroke="#000" stroke-width=".73" stroke-miterlimit="10"/>
    </g>
    <g clip-path="url(#G)" transform="matrix(.96658 0 0 -.96658 -70.544 363.744)">
      <path d="M181.135 337.975h18.68v18.68h-18.68z" fill="#fff"/>
      <path d="M182.135 338.975h16.68v16.68h-16.68z" fill="none" stroke="#000" stroke-width=".73" stroke-miterlimit="10"/>
    </g>
    <g clip-path="url(#H)" transform="matrix(.96658 0 0 -.96658 -70.544 363.744)">
      <path d="M161.47 337.975h18.681v18.68h-18.68z" fill="#fff"/>
      <path d="M162.47 338.975h16.681v16.68h-16.68z" fill="none" stroke="#000" stroke-width=".73" stroke-miterlimit="10"/>
    </g>
    <g clip-path="url(#I)" transform="matrix(.96658 0 0 -.96658 -70.544 363.744)">
      <path d="M141.807 337.975h18.68v18.68h-18.68z" fill="#fff"/>
      <path d="M142.807 338.975h16.68v16.68h-16.68z" fill="none" stroke="#000" stroke-width=".73" stroke-miterlimit="10"/>
    </g>
    <g clip-path="url(#J)" transform="matrix(.96658 0 0 -.96658 -70.544 363.744)">
      <path d="M122.143 337.975h18.68v18.68h-18.68z" fill="#fff"/>
      <path d="M123.143 338.975h16.68v16.68h-16.68z" fill="none" stroke="#000" stroke-width=".73" stroke-miterlimit="10"/>
    </g>
    <g clip-path="url(#K)" transform="matrix(.96658 0 0 -.96658 -70.544 363.744)">
      <path d="M102.479 337.975h18.68v18.68h-18.68z" fill="#fff"/>
      <path d="M103.479 338.975h16.68v16.68h-16.68z" fill="none" stroke="#000" stroke-width=".73" stroke-miterlimit="10"/>
    </g>
    <g clip-path="url(#L)" transform="matrix(.96658 0 0 -.96658 -70.544 363.744)">
      <path d="M107.395 318.31h18.68v18.682h-18.68z" fill="#fff"/>
      <path d="M108.395 319.31h16.68v16.682h-16.68z" fill="none" stroke="#000" stroke-width=".73" stroke-miterlimit="10"/>
    </g>
    <g clip-path="url(#M)" transform="matrix(.96658 0 0 -.96658 -70.544 363.744)">
      <path d="M127.059 318.31h18.68v18.682h-18.68z" fill="#fff"/>
      <path d="M128.059 319.31h16.68v16.682h-16.68z" fill="none" stroke="#000" stroke-width=".73" stroke-miterlimit="10"/>
    </g>
    <g clip-path="url(#N)" transform="matrix(.96658 0 0 -.96658 -70.544 363.744)">
      <path d="M146.723 318.31h18.68v18.682h-18.68z" fill="#fff"/>
      <path d="M147.723 319.31h16.68v16.682h-16.68z" fill="none" stroke="#000" stroke-width=".73" stroke-miterlimit="10"/>
    </g>
    <g clip-path="url(#O)" transform="matrix(.96658 0 0 -.96658 -70.544 363.744)">
      <path d="M166.387 318.31h18.68v18.682h-18.68z" fill="#fff"/>
      <path d="M167.387 319.31h16.68v16.682h-16.68z" fill="none" stroke="#000" stroke-width=".73" stroke-miterlimit="10"/>
    </g>
    <g clip-path="url(#P)" transform="matrix(.96658 0 0 -.96658 -70.544 363.744)">
      <path d="M186.05 318.31h18.681v18.682h-18.68z" fill="#fff"/>
      <path d="M187.05 319.31h16.681v16.682h-16.68z" fill="none" stroke="#000" stroke-width=".73" stroke-miterlimit="10"/>
    </g>
    <g clip-path="url(#Q)" transform="matrix(.96658 0 0 -.96658 -70.544 363.744)">
      <path d="M205.714 318.31h18.681v18.682h-18.68z" fill="#fff"/>
      <path d="M206.714 319.31h16.681v16.682h-16.68z" fill="none" stroke="#000" stroke-width=".73" stroke-miterlimit="10"/>
    </g>
    <g clip-path="url(#R)" transform="matrix(.96658 0 0 -.96658 -70.544 363.744)">
      <path d="M225.378 318.31h18.68v18.682h-18.68z" fill="#fff"/>
      <path d="M226.378 319.31h16.68v16.682h-16.68z" fill="none" stroke="#000" stroke-width=".73" stroke-miterlimit="10"/>
    </g>
    <g clip-path="url(#S)" transform="matrix(.96658 0 0 -.96658 -70.544 363.744)">
      <path d="M245.042 318.31h18.68v18.682h-18.68z" fill="#fff"/>
      <path d="M246.042 319.31h16.68v16.682h-16.68z" fill="none" stroke="#000" stroke-width=".73" stroke-miterlimit="10"/>
    </g>
    <g clip-path="url(#T)" transform="matrix(.96658 0 0 -.96658 -70.544 363.744)">
      <path d="M264.706 318.31h18.68v18.682h-18.68z" fill="#fff"/>
      <path d="M265.706 319.31h16.68v16.682h-16.68z" fill="none" stroke="#000" stroke-width=".73" stroke-miterlimit="10"/>
    </g>
    <g clip-path="url(#U)" transform="matrix(.96658 0 0 -.96658 -70.544 363.744)">
      <path d="M284.37 318.31h18.68v18.682h-18.68z" fill="#fff"/>
      <path d="M285.37 319.31h16.68v16.682h-16.68z" fill="none" stroke="#000" stroke-width=".73" stroke-miterlimit="10"/>
    </g>
    <g clip-path="url(#V)" transform="matrix(.96658 0 0 -.96658 -70.544 363.744)">
      <text transform="matrix(1 0 0 -1 292.48 325.908)" style="-inkscape-font-specification:ArialUnicodeMS" font-weight="400" font-size="8.849" font-family="'Arial Unicode MS'" stroke-width=".133">
        <tspan x="0" y="0" stroke-width=".365">;</tspan>
      </text>
    </g>
    <g clip-path="url(#W)" transform="matrix(.96658 0 0 -.96658 -70.544 363.744)">
      <path d="M304.034 318.31h18.68v18.682h-18.68z" fill="#fff"/>
      <path d="M305.034 319.31h16.68v16.682h-16.68z" fill="none" stroke="#000" stroke-width=".73" stroke-miterlimit="10"/>
    </g>
    <g clip-path="url(#X)" transform="matrix(.96658 0 0 -.96658 -70.544 363.744)">
      <text transform="matrix(1 0 0 -1 312.53 325.908)" style="-inkscape-font-specification:ArialUnicodeMS" font-weight="400" font-size="8.849" font-family="'Arial Unicode MS'" stroke-width=".133">
        <tspan x="0" y="0" stroke-width=".365">'</tspan>
      </text>
    </g>
    <g clip-path="url(#Y)" transform="matrix(.96658 0 0 -.96658 -70.544 363.744)">
      <path d="M294.202 298.647h18.68v18.68h-18.68z" fill="#fff"/>
      <path d="M295.202 299.647h16.68v16.68h-16.68z" fill="none" stroke="#000" stroke-width=".73" stroke-miterlimit="10"/>
    </g>
    <g clip-path="url(#Z)" transform="matrix(.96658 0 0 -.96658 -70.544 363.744)">
      <path d="M274.538 298.647h18.68v18.68h-18.68z" fill="#fff"/>
      <path d="M275.538 299.647h16.68v16.68h-16.68z" fill="none" stroke="#000" stroke-width=".73" stroke-miterlimit="10"/>
    </g>
    <g clip-path="url(#aa)" transform="matrix(.96658 0 0 -.96658 -70.544 363.744)">
      <path d="M254.874 298.647h18.68v18.68h-18.68z" fill="#fff"/>
      <path d="M255.874 299.647h16.68v16.68h-16.68z" fill="none" stroke="#000" stroke-width=".73" stroke-miterlimit="10"/>
    </g>
    <g clip-path="url(#ab)" transform="matrix(.96658 0 0 -.96658 -70.544 363.744)">
      <path d="M235.21 298.647h18.68v18.68h-18.68z" fill="#fff"/>
      <path d="M236.21 299.647h16.68v16.68h-16.68z" fill="none" stroke="#000" stroke-width=".73" stroke-miterlimit="10"/>
    </g>
    <g clip-path="url(#ac)" transform="matrix(.96658 0 0 -.96658 -70.544 363.744)">
      <path d="M215.546 298.647h18.68v18.68h-18.68z" fill="#fff"/>
      <path d="M216.546 299.647h16.68v16.68h-16.68z" fill="none" stroke="#000" stroke-width=".73" stroke-miterlimit="10"/>
    </g>
    <g clip-path="url(#ad)" transform="matrix(.96658 0 0 -.96658 -70.544 363.744)">
      <path d="M195.882 298.647h18.681v18.68h-18.68z" fill="#fff"/>
      <path d="M196.882 299.647h16.681v16.68h-16.68z" fill="none" stroke="#000" stroke-width=".73" stroke-miterlimit="10"/>
    </g>
    <g clip-path="url(#ae)" transform="matrix(.96658 0 0 -.96658 -70.544 363.744)">
      <path d="M176.219 298.647h18.68v18.68h-18.68z" fill="#fff"/>
      <path d="M177.219 299.647h16.68v16.68h-16.68z" fill="none" stroke="#000" stroke-width=".73" stroke-miterlimit="10"/>
    </g>
    <g clip-path="url(#af)" transform="matrix(.96658 0 0 -.96658 -70.544 363.744)">
      <path d="M156.555 298.647h18.68v18.68h-18.68z" fill="#fff"/>
      <path d="M157.555 299.647h16.68v16.68h-16.68z" fill="none" stroke="#000" stroke-width=".73" stroke-miterlimit="10"/>
    </g>
    <g clip-path="url(#ag)" transform="matrix(.96658 0 0 -.96658 -70.544 363.744)">
      <path d="M136.89 298.647h18.681v18.68h-18.68z" fill="#fff"/>
      <path d="M137.89 299.647h16.681v16.68h-16.68z" fill="none" stroke="#000" stroke-width=".73" stroke-miterlimit="10"/>
    </g>
    <g clip-path="url(#ah)" transform="matrix(.96658 0 0 -.96658 -70.544 363.744)">
      <path d="M117.227 298.647h18.68v18.68h-18.68z" fill="#fff"/>
      <path d="M118.227 299.647h16.68v16.68h-16.68z" fill="none" stroke="#000" stroke-width=".73" stroke-miterlimit="10"/>
    </g>
    <g clip-path="url(#ai)" transform="matrix(.96658 0 0 -.96658 -70.544 363.744)">
      <path d="M72.983 337.975h28.513v18.68H72.983z" fill="#fff"/>
      <path d="M73.983 338.975h26.513v16.68H73.983z" fill="none" stroke="#000" stroke-width=".73" stroke-miterlimit="10"/>
    </g>
    <g clip-path="url(#aj)" transform="matrix(.96658 0 0 -.96658 -70.544 363.744)">
      <text transform="matrix(1 0 0 -1 84.085 345.572)" style="-inkscape-font-specification:ArialUnicodeMS" font-weight="400" font-size="8.849" font-family="'Arial Unicode MS'" stroke-width=".133">
        <tspan x="0" y="0" stroke-width=".365">&#x21E5;</tspan>
      </text>
    </g>
    <g clip-path="url(#ak)" transform="matrix(.96658 0 0 -.96658 -70.544 363.744)">
      <path d="M72.983 318.31h33.429v18.682H72.983z" fill="#fff"/>
      <path d="M73.983 319.31h31.429v16.682H73.983z" fill="none" stroke="#000" stroke-width=".73" stroke-miterlimit="10"/>
    </g>
    <g clip-path="url(#al)" transform="matrix(.96658 0 0 -.96658 -70.544 363.744)">
      <text transform="matrix(1 0 0 -1 86.543 325.908)" style="-inkscape-font-specification:ArialUnicodeMS" font-weight="400" font-size="8.849" font-family="'Arial Unicode MS'" stroke-width=".133">
        <tspan x="0" y="0" stroke-width=".365">&#x21EA;</tspan>
      </text>
    </g>
    <g clip-path="url(#am)" transform="matrix(.96658 0 0 -.96658 -70.544 363.744)">
      <path d="M72.983 298.647h43.26v18.68h-43.26z" fill="#fff"/>
      <path d="M73.983 299.647h41.26v16.68h-41.26z" fill="none" stroke="#000" stroke-width=".73" stroke-miterlimit="10"/>
    </g>
    <g clip-path="url(#an)" transform="matrix(.96658 0 0 -.96658 -70.544 363.744)">
      <text transform="matrix(1 0 0 -1 91.46 306.244)" style="-inkscape-font-specification:ArialUnicodeMS" font-weight="400" font-size="8.849" font-family="'Arial Unicode MS'" stroke-width=".133">
        <tspan x="0" y="0" stroke-width=".365">&#x21E7;</tspan>
      </text>
    </g>
    <g clip-path="url(#ao)" transform="matrix(.96658 0 0 -.96658 -70.544 363.744)">
      <path d="M313.865 298.647h48.177v18.68h-48.176z" fill="#fff"/>
      <path d="M314.865 299.647h46.177v16.68h-46.176z" fill="none" stroke="#000" stroke-width=".73" stroke-miterlimit="10"/>
    </g>
    <g clip-path="url(#ap)" transform="matrix(.96658 0 0 -.96658 -70.544 363.744)">
      <text transform="matrix(1 0 0 -1 334.8 306.244)" style="-inkscape-font-specification:ArialUnicodeMS" font-weight="400" font-size="8.849" font-family="'Arial Unicode MS'" stroke-width=".133">
        <tspan x="0" y="0" stroke-width=".365">&#x21E7;</tspan>
      </text>
    </g>
    <g clip-path="url(#aq)" transform="matrix(.96658 0 0 -.96658 -70.544 363.744)">
      <path d="M72.983 278.983H96.58v18.68H72.983z" fill="#fff"/>
      <path d="M73.983 279.983H95.58v16.68H73.983z" fill="none" stroke="#000" stroke-width=".73" stroke-miterlimit="10"/>
    </g>
    <g clip-path="url(#ar)" transform="matrix(.96658 0 0 -.96658 -70.544 363.744)">
      <text transform="matrix(1 0 0 -1 82.353 286.58)" style="-inkscape-font-specification:ArialUnicodeMS" font-weight="400" font-size="8.849" font-family="'Arial Unicode MS'" stroke-width=".133">
        <tspan x="0" y="0" stroke-width=".365">&#x2303;</tspan>
      </text>
    </g>
    <g clip-path="url(#as)" transform="matrix(.96658 0 0 -.96658 -70.544 363.744)">
      <path d="M97.563 278.983h23.597v18.68H97.563z" fill="#a9a9a9"/>
      <path d="M98.563 279.983h21.597v16.68H98.563z" fill="none" stroke="#000" stroke-width=".73" stroke-miterlimit="10"/>
    </g>
    <g clip-path="url(#at)" transform="matrix(.96658 0 0 -.96658 -70.544 363.744)">
      <text transform="matrix(1 0 0 -1 104.937 286.58)" style="-inkscape-font-specification:ArialUnicodeMS" font-weight="400" font-size="8.849" font-family="'Arial Unicode MS'" stroke-width=".133">
        <tspan x="0" y="0" stroke-width=".365">&#x2325;</tspan>
      </text>
    </g>
    <g clip-path="url(#au)" transform="matrix(.96658 0 0 -.96658 -70.544 363.744)">
      <path d="M122.143 278.983h23.597v18.68h-23.597z" fill="#fff"/>
      <path d="M123.143 279.983h21.597v16.68h-21.597z" fill="none" stroke="#000" stroke-width=".73" stroke-miterlimit="10"/>
    </g>
    <g clip-path="url(#av)" transform="matrix(.96658 0 0 -.96658 -70.544 363.744)">
      <text transform="matrix(1 0 0 -1 130.491 286.58)" style="-inkscape-font-specification:ArialUnicodeMS" font-weight="400" font-size="8.849" font-family="'Arial Unicode MS'" stroke-width=".133">
        <tspan x="0" y="0" stroke-width=".365">&#x2318;</tspan>
      </text>
    </g>
    <g clip-path="url(#aw)" transform="matrix(.96658 0 0 -.96658 -70.544 363.744)">
      <path d="M289.286 278.983h23.596v18.68h-23.596z" fill="#fff"/>
      <path d="M290.286 279.983h21.596v16.68h-21.596z" fill="none" stroke="#000" stroke-width=".73" stroke-miterlimit="10"/>
    </g>
    <g clip-path="url(#ax)" transform="matrix(.96658 0 0 -.96658 -70.544 363.744)">
      <text transform="matrix(1 0 0 -1 297.634 286.58)" style="-inkscape-font-specification:ArialUnicodeMS" font-weight="400" font-size="8.849" font-family="'Arial Unicode MS'" stroke-width=".133">
        <tspan x="0" y="0" stroke-width=".365">&#x2318;</tspan>
      </text>
    </g>
    <g clip-path="url(#ay)" transform="matrix(.96658 0 0 -.96658 -70.544 363.744)">
      <path d="M313.865 278.983h23.597v18.68h-23.596z" fill="#a9a9a9"/>
      <path d="M314.865 279.983h21.597v16.68h-21.597z" fill="none" stroke="#000" stroke-width=".73" stroke-miterlimit="10"/>
    </g>
    <g clip-path="url(#az)" transform="matrix(.96658 0 0 -.96658 -70.544 363.744)">
      <text transform="matrix(1 0 0 -1 321.24 286.58)" style="-inkscape-font-specification:ArialUnicodeMS" font-weight="400" font-size="8.849" font-family="'Arial Unicode MS'" stroke-width=".133">
        <tspan x="0" y="0" stroke-width=".365">&#x2325;</tspan>
      </text>
    </g>
    <g clip-path="url(#aA)" transform="matrix(.96658 0 0 -.96658 -70.544 363.744)">
      <path d="M338.445 278.983h23.597v18.68h-23.597z" fill="#fff"/>
      <path d="M339.445 279.983h21.597v16.68h-21.597z" fill="none" stroke="#000" stroke-width=".73" stroke-miterlimit="10"/>
    </g>
    <g clip-path="url(#aB)" transform="matrix(.96658 0 0 -.96658 -70.544 363.744)">
      <text transform="matrix(1 0 0 -1 347.816 286.58)" style="-inkscape-font-specification:ArialUnicodeMS" font-weight="400" font-size="8.849" font-family="'Arial Unicode MS'" stroke-width=".133">
        <tspan x="0" y="0" stroke-width=".365">&#x2303;</tspan>
      </text>
    </g>
    <g clip-path="url(#aC)" transform="matrix(.96658 0 0 -.96658 -70.544 363.744)">
      <path d="M328.613 357.639h33.429v18.68h-33.429z" fill="#fff"/>
      <path d="M329.613 358.639h31.429v16.68h-31.429z" fill="none" stroke="#000" stroke-width=".73" stroke-miterlimit="10"/>
    </g>
    <g clip-path="url(#aD)" transform="matrix(.96658 0 0 -.96658 -70.544 363.744)">
      <text transform="matrix(1 0 0 -1 340.903 365.236)" style="-inkscape-font-specification:ArialUnicodeMS" font-weight="400" font-size="8.849" font-family="'Arial Unicode MS'" stroke-width=".133">
        <tspan x="0" y="0" stroke-width=".365">&#x232B;</tspan>
      </text>
    </g>
    <g clip-path="url(#aE)" transform="matrix(.96658 0 0 -.96658 -70.544 363.744)">
      <path d="M338.445 337.975h23.597v18.68h-23.597z" fill="#fff"/>
      <path d="M339.445 338.975h21.597v16.68h-21.597z" fill="none" stroke="#000" stroke-width=".73" stroke-miterlimit="10"/>
    </g>
    <g clip-path="url(#aF)" transform="matrix(.96658 0 0 -.96658 -70.544 363.744)">
      <path d="M323.697 318.31h38.345v18.682h-38.344z" fill="#fff"/>
      <path d="M324.697 319.31h36.345v16.682h-36.344z" fill="none" stroke="#000" stroke-width=".73" stroke-miterlimit="10"/>
    </g>
    <g clip-path="url(#aG)" transform="matrix(.96658 0 0 -.96658 -70.544 363.744)">
      <text transform="matrix(1 0 0 -1 339.716 325.908)" style="-inkscape-font-specification:ArialUnicodeMS" font-weight="400" font-size="8.849" font-family="'Arial Unicode MS'" stroke-width=".133">
        <tspan x="0" y="0" stroke-width=".365">&#x21A9;</tspan>
      </text>
    </g>
    <g clip-path="url(#aH)" transform="matrix(.96658 0 0 -.96658 -70.544 363.744)">
      <path d="M146.723 278.983h141.58v18.68h-141.58z" fill="#fff"/>
      <path d="M147.723 279.983h139.58v16.68h-139.58z" fill="none" stroke="#000" stroke-width=".73" stroke-miterlimit="10"/>
    </g>
  </g>
</svg>
