<?xml version="1.0"?>
<svg xmlns="http://www.w3.org/2000/svg" width="11in" height="3.71in" viewBox="0 0 279.4 94.234">
  <defs>
    <clipPath clipPathUnits="userSpaceOnUse" id="a">
      <path d="M72.983 425.139h18.68v18.68h-18.68z"/>
    </clipPath>
    <clipPath clipPathUnits="userSpaceOnUse" id="b">
      <path d="M92.647 425.139h18.68v18.68h-18.68z"/>
    </clipPath>
    <clipPath clipPathUnits="userSpaceOnUse" id="c">
      <path d="M93.63 426.122h16.715v16.714H93.63z"/>
    </clipPath>
    <clipPath clipPathUnits="userSpaceOnUse" id="d">
      <path d="M112.31 425.139h18.682v18.68H112.31z"/>
    </clipPath>
    <clipPath clipPathUnits="userSpaceOnUse" id="e">
      <path d="M113.294 426.122h16.714v16.714h-16.714z"/>
    </clipPath>
    <clipPath clipPathUnits="userSpaceOnUse" id="f">
      <path d="M131.975 425.139h18.68v18.68h-18.68z"/>
    </clipPath>
    <clipPath clipPathUnits="userSpaceOnUse" id="g">
      <path d="M132.958 426.122h16.714v16.714h-16.714z"/>
    </clipPath>
    <clipPath clipPathUnits="userSpaceOnUse" id="h">
      <path d="M151.639 425.139h18.68v18.68h-18.68z"/>
    </clipPath>
    <clipPath clipPathUnits="userSpaceOnUse" id="i">
      <path d="M152.622 426.122h16.714v16.714h-16.714z"/>
    </clipPath>
    <clipPath clipPathUnits="userSpaceOnUse" id="j">
      <path d="M171.303 425.139h18.68v18.68h-18.68z"/>
    </clipPath>
    <clipPath clipPathUnits="userSpaceOnUse" id="k">
      <path d="M172.286 426.122H189v16.714h-16.714z"/>
    </clipPath>
    <clipPath clipPathUnits="userSpaceOnUse" id="l">
      <path d="M190.966 425.139h18.681v18.68h-18.68z"/>
    </clipPath>
    <clipPath clipPathUnits="userSpaceOnUse" id="m">
      <path d="M191.95 426.122h16.714v16.714H191.95z"/>
    </clipPath>
    <clipPath clipPathUnits="userSpaceOnUse" id="n">
      <path d="M210.63 425.139h18.681v18.68h-18.68z"/>
    </clipPath>
    <clipPath clipPathUnits="userSpaceOnUse" id="o">
      <path d="M211.613 426.122h16.715v16.714h-16.715z"/>
    </clipPath>
    <clipPath clipPathUnits="userSpaceOnUse" id="p">
      <path d="M230.294 425.139h18.68v18.68h-18.68z"/>
    </clipPath>
    <clipPath clipPathUnits="userSpaceOnUse" id="q">
      <path d="M231.277 426.122h16.715v16.714h-16.715z"/>
    </clipPath>
    <clipPath clipPathUnits="userSpaceOnUse" id="r">
      <path d="M249.958 425.139h18.68v18.68h-18.68z"/>
    </clipPath>
    <clipPath clipPathUnits="userSpaceOnUse" id="s">
      <path d="M250.941 426.122h16.714v16.714h-16.714z"/>
    </clipPath>
    <clipPath clipPathUnits="userSpaceOnUse" id="t">
      <path d="M269.622 425.139h18.68v18.68h-18.68z"/>
    </clipPath>
    <clipPath clipPathUnits="userSpaceOnUse" id="u">
      <path d="M270.605 426.122h16.714v16.714h-16.714z"/>
    </clipPath>
    <clipPath clipPathUnits="userSpaceOnUse" id="v">
      <path d="M289.286 425.139h18.68v18.68h-18.68z"/>
    </clipPath>
    <clipPath clipPathUnits="userSpaceOnUse" id="w">
      <path d="M308.95 425.139h18.68v18.68h-18.68z"/>
    </clipPath>
    <clipPath clipPathUnits="userSpaceOnUse" id="x">
      <path d="M318.781 405.475h18.681v18.68h-18.68z"/>
    </clipPath>
    <clipPath clipPathUnits="userSpaceOnUse" id="y">
      <path d="M319.765 406.458h16.714v16.714h-16.714z"/>
    </clipPath>
    <clipPath clipPathUnits="userSpaceOnUse" id="z">
      <path d="M299.118 405.475h18.68v18.68h-18.68z"/>
    </clipPath>
    <clipPath clipPathUnits="userSpaceOnUse" id="A">
      <path d="M300.1 406.458h16.715v16.714h-16.714z"/>
    </clipPath>
    <clipPath clipPathUnits="userSpaceOnUse" id="B">
      <path d="M279.454 405.475h18.68v18.68h-18.68z"/>
    </clipPath>
    <clipPath clipPathUnits="userSpaceOnUse" id="C">
      <path d="M259.79 405.475h18.68v18.68h-18.68z"/>
    </clipPath>
    <clipPath clipPathUnits="userSpaceOnUse" id="D">
      <path d="M240.126 405.475h18.68v18.68h-18.68z"/>
    </clipPath>
    <clipPath clipPathUnits="userSpaceOnUse" id="E">
      <path d="M220.462 405.475h18.68v18.68h-18.68z"/>
    </clipPath>
    <clipPath clipPathUnits="userSpaceOnUse" id="F">
      <path d="M200.798 405.475h18.681v18.68h-18.68z"/>
    </clipPath>
    <clipPath clipPathUnits="userSpaceOnUse" id="G">
      <path d="M181.135 405.475h18.68v18.68h-18.68z"/>
    </clipPath>
    <clipPath clipPathUnits="userSpaceOnUse" id="H">
      <path d="M161.47 405.475h18.681v18.68h-18.68z"/>
    </clipPath>
    <clipPath clipPathUnits="userSpaceOnUse" id="I">
      <path d="M141.807 405.475h18.68v18.68h-18.68z"/>
    </clipPath>
    <clipPath clipPathUnits="userSpaceOnUse" id="J">
      <path d="M122.143 405.475h18.68v18.68h-18.68z"/>
    </clipPath>
    <clipPath clipPathUnits="userSpaceOnUse" id="K">
      <path d="M102.479 405.475h18.68v18.68h-18.68z"/>
    </clipPath>
    <clipPath clipPathUnits="userSpaceOnUse" id="L">
      <path d="M107.395 385.81h18.68v18.682h-18.68z"/>
    </clipPath>
    <clipPath clipPathUnits="userSpaceOnUse" id="M">
      <path d="M127.059 385.81h18.68v18.682h-18.68z"/>
    </clipPath>
    <clipPath clipPathUnits="userSpaceOnUse" id="N">
      <path d="M146.723 385.81h18.68v18.682h-18.68z"/>
    </clipPath>
    <clipPath clipPathUnits="userSpaceOnUse" id="O">
      <path d="M166.387 385.81h18.68v18.682h-18.68z"/>
    </clipPath>
    <clipPath clipPathUnits="userSpaceOnUse" id="P">
      <path d="M186.05 385.81h18.681v18.682h-18.68z"/>
    </clipPath>
    <clipPath clipPathUnits="userSpaceOnUse" id="Q">
      <path d="M205.714 385.81h18.681v18.682h-18.68z"/>
    </clipPath>
    <clipPath clipPathUnits="userSpaceOnUse" id="R">
      <path d="M225.378 385.81h18.68v18.682h-18.68z"/>
    </clipPath>
    <clipPath clipPathUnits="userSpaceOnUse" id="S">
      <path d="M245.042 385.81h18.68v18.682h-18.68z"/>
    </clipPath>
    <clipPath clipPathUnits="userSpaceOnUse" id="T">
      <path d="M264.706 385.81h18.68v18.682h-18.68z"/>
    </clipPath>
    <clipPath clipPathUnits="userSpaceOnUse" id="U">
      <path d="M284.37 385.81h18.68v18.682h-18.68z"/>
    </clipPath>
    <clipPath clipPathUnits="userSpaceOnUse" id="V">
      <path d="M304.034 385.81h18.68v18.682h-18.68z"/>
    </clipPath>
    <clipPath clipPathUnits="userSpaceOnUse" id="W">
      <path d="M294.202 366.147h18.68v18.68h-18.68z"/>
    </clipPath>
    <clipPath clipPathUnits="userSpaceOnUse" id="X">
      <path d="M274.538 366.147h18.68v18.68h-18.68z"/>
    </clipPath>
    <clipPath clipPathUnits="userSpaceOnUse" id="Y">
      <path d="M254.874 366.147h18.68v18.68h-18.68z"/>
    </clipPath>
    <clipPath clipPathUnits="userSpaceOnUse" id="Z">
      <path d="M235.21 366.147h18.68v18.68h-18.68z"/>
    </clipPath>
    <clipPath clipPathUnits="userSpaceOnUse" id="aa">
      <path d="M215.546 366.147h18.68v18.68h-18.68z"/>
    </clipPath>
    <clipPath clipPathUnits="userSpaceOnUse" id="ab">
      <path d="M195.882 366.147h18.681v18.68h-18.68z"/>
    </clipPath>
    <clipPath clipPathUnits="userSpaceOnUse" id="ac">
      <path d="M176.219 366.147h18.68v18.68h-18.68z"/>
    </clipPath>
    <clipPath clipPathUnits="userSpaceOnUse" id="ad">
      <path d="M156.555 366.147h18.68v18.68h-18.68z"/>
    </clipPath>
    <clipPath clipPathUnits="userSpaceOnUse" id="ae">
      <path d="M136.89 366.147h18.681v18.68h-18.68z"/>
    </clipPath>
    <clipPath clipPathUnits="userSpaceOnUse" id="af">
      <path d="M117.227 366.147h18.68v18.68h-18.68z"/>
    </clipPath>
    <clipPath clipPathUnits="userSpaceOnUse" id="ag">
      <path d="M72.983 405.475h28.513v18.68H72.983z"/>
    </clipPath>
    <clipPath clipPathUnits="userSpaceOnUse" id="ah">
      <path d="M73.966 406.458h26.547v16.714H73.966z"/>
    </clipPath>
    <clipPath clipPathUnits="userSpaceOnUse" id="ai">
      <path d="M72.983 385.81h33.429v18.682H72.983z"/>
    </clipPath>
    <clipPath clipPathUnits="userSpaceOnUse" id="aj">
      <path d="M73.966 386.794h31.463v16.714H73.966z"/>
    </clipPath>
    <clipPath clipPathUnits="userSpaceOnUse" id="ak">
      <path d="M72.983 366.147h43.26v18.68h-43.26z"/>
    </clipPath>
    <clipPath clipPathUnits="userSpaceOnUse" id="al">
      <path d="M73.966 367.13h41.295v16.715H73.966z"/>
    </clipPath>
    <clipPath clipPathUnits="userSpaceOnUse" id="am">
      <path d="M313.865 366.147h48.177v18.68h-48.176z"/>
    </clipPath>
    <clipPath clipPathUnits="userSpaceOnUse" id="an">
      <path d="M314.849 367.13h46.21v16.715h-46.21z"/>
    </clipPath>
    <clipPath clipPathUnits="userSpaceOnUse" id="ao">
      <path d="M72.983 346.483H96.58v18.68H72.983z"/>
    </clipPath>
    <clipPath clipPathUnits="userSpaceOnUse" id="ap">
      <path d="M73.966 347.466h21.63v16.715h-21.63z"/>
    </clipPath>
    <clipPath clipPathUnits="userSpaceOnUse" id="aq">
      <path d="M97.563 346.483h23.597v18.68H97.563z"/>
    </clipPath>
    <clipPath clipPathUnits="userSpaceOnUse" id="ar">
      <path d="M98.546 347.466h21.63v16.715h-21.63z"/>
    </clipPath>
    <clipPath clipPathUnits="userSpaceOnUse" id="as">
      <path d="M122.143 346.483h23.597v18.68h-23.597z"/>
    </clipPath>
    <clipPath clipPathUnits="userSpaceOnUse" id="at">
      <path d="M123.126 347.466h21.63v16.715h-21.63z"/>
    </clipPath>
    <clipPath clipPathUnits="userSpaceOnUse" id="au">
      <path d="M289.286 346.483h23.596v18.68h-23.596z"/>
    </clipPath>
    <clipPath clipPathUnits="userSpaceOnUse" id="av">
      <path d="M290.269 347.466h21.63v16.715h-21.63z"/>
    </clipPath>
    <clipPath clipPathUnits="userSpaceOnUse" id="aw">
      <path d="M313.865 346.483h23.597v18.68h-23.596z"/>
    </clipPath>
    <clipPath clipPathUnits="userSpaceOnUse" id="ax">
      <path d="M314.849 347.466h21.63v16.715h-21.63z"/>
    </clipPath>
    <clipPath clipPathUnits="userSpaceOnUse" id="ay">
      <path d="M338.445 346.483h23.597v18.68h-23.597z"/>
    </clipPath>
    <clipPath clipPathUnits="userSpaceOnUse" id="az">
      <path d="M339.429 347.466h21.63v16.715h-21.63z"/>
    </clipPath>
    <clipPath clipPathUnits="userSpaceOnUse" id="aA">
      <path d="M328.613 425.139h33.429v18.68h-33.429z"/>
    </clipPath>
    <clipPath clipPathUnits="userSpaceOnUse" id="aB">
      <path d="M329.597 426.122h31.462v16.714h-31.462z"/>
    </clipPath>
    <clipPath clipPathUnits="userSpaceOnUse" id="aC">
      <path d="M338.445 405.475h23.597v18.68h-23.597z"/>
    </clipPath>
    <clipPath clipPathUnits="userSpaceOnUse" id="aD">
      <path d="M323.697 385.81h38.345v18.682h-38.344z"/>
    </clipPath>
    <clipPath clipPathUnits="userSpaceOnUse" id="aE">
      <path d="M324.68 386.794h36.379v16.714H324.68z"/>
    </clipPath>
    <clipPath clipPathUnits="userSpaceOnUse" id="aF">
      <path d="M146.723 346.483h141.58v18.68h-141.58z"/>
    </clipPath>
  </defs>
  <g stroke-width=".365">
    <g clip-path="url(#a)" transform="matrix(.96658 0 0 -.96658 -70.544 428.989)">
      <path d="M72.983 425.139h18.68v18.68h-18.68z" fill="#fff"/>
      <path d="M73.983 426.139h16.68v16.68h-16.68z" fill="none" stroke="#000" stroke-width=".73" stroke-miterlimit="10"/>
    </g>
    <g clip-path="url(#b)" transform="matrix(.96658 0 0 -.96658 -70.544 428.989)">
      <path d="M92.647 425.139h18.68v18.68h-18.68z" fill="#fff"/>
      <path d="M93.647 426.139h16.68v16.68h-16.68z" fill="none" stroke="#000" stroke-width=".73" stroke-miterlimit="10"/>
    </g>
    <g clip-path="url(#c)" transform="matrix(.96658 0 0 -.96658 -70.544 428.989)">
      <text transform="matrix(1 0 0 -1 100.758 432.736)" style="-inkscape-font-specification:ArialUnicodeMS" font-weight="400" font-size="8.849" font-family="'Arial Unicode MS'" stroke-width=".133">
        <tspan x="0" y="0" stroke-width=".365">!</tspan>
      </text>
    </g>
    <g clip-path="url(#d)" transform="matrix(.96658 0 0 -.96658 -70.544 428.989)">
      <path d="M112.31 425.139h18.682v18.68H112.31z" fill="#fff"/>
      <path d="M113.31 426.139h16.682v16.68H113.31z" fill="none" stroke="#000" stroke-width=".73" stroke-miterlimit="10"/>
    </g>
    <g clip-path="url(#e)" transform="matrix(.96658 0 0 -.96658 -70.544 428.989)">
      <text transform="scale(1 -1)" style="-inkscape-font-specification:ArialUnicodeMS" font-weight="400" font-size="9" font-family="'Arial Unicode MS'" x="116.984" y="-434.518" stroke-width=".133">
        <tspan x="116.984" y="-434.518" stroke-width=".365">@</tspan>
      </text>
    </g>
    <g clip-path="url(#f)" transform="matrix(.96658 0 0 -.96658 -70.544 428.989)">
      <path d="M131.975 425.139h18.68v18.68h-18.68z" fill="#fff"/>
      <path d="M132.975 426.139h16.68v16.68h-16.68z" fill="none" stroke="#000" stroke-width=".73" stroke-miterlimit="10"/>
    </g>
    <g clip-path="url(#g)" transform="matrix(.96658 0 0 -.96658 -70.544 428.989)">
      <text transform="matrix(1 0 0 -1 138.855 432.736)" style="-inkscape-font-specification:ArialUnicodeMS" font-weight="400" font-size="8.849" font-family="'Arial Unicode MS'" stroke-width=".133">
        <tspan x="0" y="0" stroke-width=".365">#</tspan>
      </text>
    </g>
    <g clip-path="url(#h)" transform="matrix(.96658 0 0 -.96658 -70.544 428.989)">
      <path d="M151.639 425.139h18.68v18.68h-18.68z" fill="#fff"/>
      <path d="M152.639 426.139h16.68v16.68h-16.68z" fill="none" stroke="#000" stroke-width=".73" stroke-miterlimit="10"/>
    </g>
    <g clip-path="url(#i)" transform="matrix(.96658 0 0 -.96658 -70.544 428.989)">
      <text transform="matrix(1 0 0 -1 158.518 432.736)" style="-inkscape-font-specification:ArialUnicodeMS" font-weight="400" font-size="8.849" font-family="'Arial Unicode MS'" stroke-width=".133">
        <tspan x="0" y="0" stroke-width=".365">$</tspan>
      </text>
    </g>
    <g clip-path="url(#j)" transform="matrix(.96658 0 0 -.96658 -70.544 428.989)">
      <path d="M171.303 425.139h18.68v18.68h-18.68z" fill="#fff"/>
      <path d="M172.303 426.139h16.68v16.68h-16.68z" fill="none" stroke="#000" stroke-width=".73" stroke-miterlimit="10"/>
    </g>
    <g clip-path="url(#k)" transform="matrix(.96658 0 0 -.96658 -70.544 428.989)">
      <text transform="matrix(1 0 0 -1 178.02 436.036)" style="-inkscape-font-specification:ArialUnicodeMS" font-weight="400" font-size="5.899" font-family="'Arial Unicode MS'" stroke-width=".133">
        <tspan x="0" y="0" stroke-width=".365">%</tspan>
      </text>
    </g>
    <g clip-path="url(#l)" transform="matrix(.96658 0 0 -.96658 -70.544 428.989)">
      <path d="M190.966 425.139h18.681v18.68h-18.68z" fill="#fff"/>
      <path d="M191.966 426.139h16.681v16.68h-16.68z" fill="none" stroke="#000" stroke-width=".73" stroke-miterlimit="10"/>
    </g>
    <g clip-path="url(#m)" transform="matrix(.96658 0 0 -.96658 -70.544 428.989)">
      <text transform="matrix(1 0 0 -1 198.23 432.736)" style="-inkscape-font-specification:ArialUnicodeMS" font-weight="400" font-size="8.849" font-family="'Arial Unicode MS'" stroke-width=".133">
        <tspan x="0" y="0" stroke-width=".365">^</tspan>
      </text>
    </g>
    <g clip-path="url(#n)" transform="matrix(.96658 0 0 -.96658 -70.544 428.989)">
      <path d="M210.63 425.139h18.681v18.68h-18.68z" fill="#fff"/>
      <path d="M211.63 426.139h16.681v16.68h-16.68z" fill="none" stroke="#000" stroke-width=".73" stroke-miterlimit="10"/>
    </g>
    <g clip-path="url(#o)" transform="matrix(.96658 0 0 -.96658 -70.544 428.989)">
      <text transform="matrix(1 0 0 -1 217.02 432.736)" style="-inkscape-font-specification:ArialUnicodeMS" font-weight="400" font-size="8.849" font-family="'Arial Unicode MS'" stroke-width=".133">
        <tspan x="0" y="0" stroke-width=".365">&amp;</tspan>
      </text>
    </g>
    <g clip-path="url(#p)" transform="matrix(.96658 0 0 -.96658 -70.544 428.989)">
      <path d="M230.294 425.139h18.68v18.68h-18.68z" fill="#fff"/>
      <path d="M231.294 426.139h16.68v16.68h-16.68z" fill="none" stroke="#000" stroke-width=".73" stroke-miterlimit="10"/>
    </g>
    <g clip-path="url(#q)" transform="matrix(.96658 0 0 -.96658 -70.544 428.989)">
      <text transform="matrix(1 0 0 -1 237.913 432.736)" style="-inkscape-font-specification:ArialUnicodeMS" font-weight="400" font-size="8.849" font-family="'Arial Unicode MS'" stroke-width=".133">
        <tspan x="0" y="0" stroke-width=".365">*</tspan>
      </text>
    </g>
    <g clip-path="url(#r)" transform="matrix(.96658 0 0 -.96658 -70.544 428.989)">
      <path d="M249.958 425.139h18.68v18.68h-18.68z" fill="#fff"/>
      <path d="M250.958 426.139h16.68v16.68h-16.68z" fill="none" stroke="#000" stroke-width=".73" stroke-miterlimit="10"/>
    </g>
    <g clip-path="url(#s)" transform="matrix(.96658 0 0 -.96658 -70.544 428.989)">
      <text transform="matrix(1 0 0 -1 257.825 432.736)" style="-inkscape-font-specification:ArialUnicodeMS" font-weight="400" font-size="8.849" font-family="'Arial Unicode MS'" stroke-width=".133">
        <tspan x="0" y="0" stroke-width=".365">(</tspan>
      </text>
    </g>
    <g clip-path="url(#t)" transform="matrix(.96658 0 0 -.96658 -70.544 428.989)">
      <path d="M269.622 425.139h18.68v18.68h-18.68z" fill="#fff"/>
      <path d="M270.622 426.139h16.68v16.68h-16.68z" fill="none" stroke="#000" stroke-width=".73" stroke-miterlimit="10"/>
    </g>
    <g clip-path="url(#u)" transform="matrix(.96658 0 0 -.96658 -70.544 428.989)">
      <text transform="matrix(1 0 0 -1 277.489 432.736)" style="-inkscape-font-specification:ArialUnicodeMS" font-weight="400" font-size="8.849" font-family="'Arial Unicode MS'" stroke-width=".133">
        <tspan x="0" y="0" stroke-width=".365">)</tspan>
      </text>
    </g>
    <g clip-path="url(#v)" transform="matrix(.96658 0 0 -.96658 -70.544 428.989)">
      <path d="M289.286 425.139h18.68v18.68h-18.68z" fill="#fff"/>
      <path d="M290.286 426.139h16.68v16.68h-16.68z" fill="none" stroke="#000" stroke-width=".73" stroke-miterlimit="10"/>
    </g>
    <g clip-path="url(#w)" transform="matrix(.96658 0 0 -.96658 -70.544 428.989)">
      <path d="M308.95 425.139h18.68v18.68h-18.68z" fill="#fff"/>
      <path d="M309.95 426.139h16.68v16.68h-16.68z" fill="none" stroke="#000" stroke-width=".73" stroke-miterlimit="10"/>
    </g>
    <g clip-path="url(#x)" transform="matrix(.96658 0 0 -.96658 -70.544 428.989)">
      <path d="M318.781 405.475h18.681v18.68h-18.68z" fill="#fff"/>
      <path d="M319.781 406.475h16.681v16.68h-16.68z" fill="none" stroke="#000" stroke-width=".73" stroke-miterlimit="10"/>
    </g>
    <g clip-path="url(#y)" transform="matrix(.96658 0 0 -.96658 -70.544 428.989)">
      <text transform="matrix(1 0 0 -1 326.644 413.072)" style="-inkscape-font-specification:ArialUnicodeMS" font-weight="400" font-size="8.849" font-family="'Arial Unicode MS'" stroke-width=".133">
        <tspan x="0" y="0" stroke-width=".365">}</tspan>
      </text>
    </g>
    <g clip-path="url(#z)" transform="matrix(.96658 0 0 -.96658 -70.544 428.989)">
      <path d="M299.118 405.475h18.68v18.68h-18.68z" fill="#fff"/>
      <path d="M300.118 406.475h16.68v16.68h-16.68z" fill="none" stroke="#000" stroke-width=".73" stroke-miterlimit="10"/>
    </g>
    <g clip-path="url(#A)" transform="matrix(.96658 0 0 -.96658 -70.544 428.989)">
      <text transform="matrix(1 0 0 -1 306.98 413.072)" style="-inkscape-font-specification:ArialUnicodeMS" font-weight="400" font-size="8.849" font-family="'Arial Unicode MS'" stroke-width=".133">
        <tspan x="0" y="0" stroke-width=".365">{</tspan>
      </text>
    </g>
    <g clip-path="url(#B)" transform="matrix(.96658 0 0 -.96658 -70.544 428.989)">
      <path d="M279.454 405.475h18.68v18.68h-18.68z" fill="#fff"/>
      <path d="M280.454 406.475h16.68v16.68h-16.68z" fill="none" stroke="#000" stroke-width=".73" stroke-miterlimit="10"/>
    </g>
    <g clip-path="url(#C)" transform="matrix(.96658 0 0 -.96658 -70.544 428.989)">
      <path d="M259.79 405.475h18.68v18.68h-18.68z" fill="#fff"/>
      <path d="M260.79 406.475h16.68v16.68h-16.68z" fill="none" stroke="#000" stroke-width=".73" stroke-miterlimit="10"/>
    </g>
    <g clip-path="url(#D)" transform="matrix(.96658 0 0 -.96658 -70.544 428.989)">
      <path d="M240.126 405.475h18.68v18.68h-18.68z" fill="#fff"/>
      <path d="M241.126 406.475h16.68v16.68h-16.68z" fill="none" stroke="#000" stroke-width=".73" stroke-miterlimit="10"/>
    </g>
    <g clip-path="url(#E)" transform="matrix(.96658 0 0 -.96658 -70.544 428.989)">
      <path d="M220.462 405.475h18.68v18.68h-18.68z" fill="#fff"/>
      <path d="M221.462 406.475h16.68v16.68h-16.68z" fill="none" stroke="#000" stroke-width=".73" stroke-miterlimit="10"/>
    </g>
    <g clip-path="url(#F)" transform="matrix(.96658 0 0 -.96658 -70.544 428.989)">
      <path d="M200.798 405.475h18.681v18.68h-18.68z" fill="#fff"/>
      <path d="M201.798 406.475h16.681v16.68h-16.68z" fill="none" stroke="#000" stroke-width=".73" stroke-miterlimit="10"/>
    </g>
    <g clip-path="url(#G)" transform="matrix(.96658 0 0 -.96658 -70.544 428.989)">
      <path d="M181.135 405.475h18.68v18.68h-18.68z" fill="#fff"/>
      <path d="M182.135 406.475h16.68v16.68h-16.68z" fill="none" stroke="#000" stroke-width=".73" stroke-miterlimit="10"/>
    </g>
    <g clip-path="url(#H)" transform="matrix(.96658 0 0 -.96658 -70.544 428.989)">
      <path d="M161.47 405.475h18.681v18.68h-18.68z" fill="#fff"/>
      <path d="M162.47 406.475h16.681v16.68h-16.68z" fill="none" stroke="#000" stroke-width=".73" stroke-miterlimit="10"/>
    </g>
    <g clip-path="url(#I)" transform="matrix(.96658 0 0 -.96658 -70.544 428.989)">
      <path d="M141.807 405.475h18.68v18.68h-18.68z" fill="#fff"/>
      <path d="M142.807 406.475h16.68v16.68h-16.68z" fill="none" stroke="#000" stroke-width=".73" stroke-miterlimit="10"/>
    </g>
    <g clip-path="url(#J)" transform="matrix(.96658 0 0 -.96658 -70.544 428.989)">
      <path d="M122.143 405.475h18.68v18.68h-18.68z" fill="#fff"/>
      <path d="M123.143 406.475h16.68v16.68h-16.68z" fill="none" stroke="#000" stroke-width=".73" stroke-miterlimit="10"/>
    </g>
    <g clip-path="url(#K)" transform="matrix(.96658 0 0 -.96658 -70.544 428.989)">
      <path d="M102.479 405.475h18.68v18.68h-18.68z" fill="#fff"/>
      <path d="M103.479 406.475h16.68v16.68h-16.68z" fill="none" stroke="#000" stroke-width=".73" stroke-miterlimit="10"/>
    </g>
    <g clip-path="url(#L)" transform="matrix(.96658 0 0 -.96658 -70.544 428.989)">
      <path d="M107.395 385.81h18.68v18.682h-18.68z" fill="#fff"/>
      <path d="M108.395 386.81h16.68v16.682h-16.68z" fill="none" stroke="#000" stroke-width=".73" stroke-miterlimit="10"/>
    </g>
    <g clip-path="url(#M)" transform="matrix(.96658 0 0 -.96658 -70.544 428.989)">
      <path d="M127.059 385.81h18.68v18.682h-18.68z" fill="#fff"/>
      <path d="M128.059 386.81h16.68v16.682h-16.68z" fill="none" stroke="#000" stroke-width=".73" stroke-miterlimit="10"/>
    </g>
    <g clip-path="url(#N)" transform="matrix(.96658 0 0 -.96658 -70.544 428.989)">
      <path d="M146.723 385.81h18.68v18.682h-18.68z" fill="#fff"/>
      <path d="M147.723 386.81h16.68v16.682h-16.68z" fill="none" stroke="#000" stroke-width=".73" stroke-miterlimit="10"/>
    </g>
    <g clip-path="url(#O)" transform="matrix(.96658 0 0 -.96658 -70.544 428.989)">
      <path d="M166.387 385.81h18.68v18.682h-18.68z" fill="#fff"/>
      <path d="M167.387 386.81h16.68v16.682h-16.68z" fill="none" stroke="#000" stroke-width=".73" stroke-miterlimit="10"/>
    </g>
    <g clip-path="url(#P)" transform="matrix(.96658 0 0 -.96658 -70.544 428.989)">
      <path d="M186.05 385.81h18.681v18.682h-18.68z" fill="#fff"/>
      <path d="M187.05 386.81h16.681v16.682h-16.68z" fill="none" stroke="#000" stroke-width=".73" stroke-miterlimit="10"/>
    </g>
    <g clip-path="url(#Q)" transform="matrix(.96658 0 0 -.96658 -70.544 428.989)">
      <path d="M205.714 385.81h18.681v18.682h-18.68z" fill="#fff"/>
      <path d="M206.714 386.81h16.681v16.682h-16.68z" fill="none" stroke="#000" stroke-width=".73" stroke-miterlimit="10"/>
    </g>
    <g clip-path="url(#R)" transform="matrix(.96658 0 0 -.96658 -70.544 428.989)">
      <path d="M225.378 385.81h18.68v18.682h-18.68z" fill="#fff"/>
      <path d="M226.378 386.81h16.68v16.682h-16.68z" fill="none" stroke="#000" stroke-width=".73" stroke-miterlimit="10"/>
    </g>
    <g clip-path="url(#S)" transform="matrix(.96658 0 0 -.96658 -70.544 428.989)">
      <path d="M245.042 385.81h18.68v18.682h-18.68z" fill="#fff"/>
      <path d="M246.042 386.81h16.68v16.682h-16.68z" fill="none" stroke="#000" stroke-width=".73" stroke-miterlimit="10"/>
    </g>
    <g clip-path="url(#T)" transform="matrix(.96658 0 0 -.96658 -70.544 428.989)">
      <path d="M264.706 385.81h18.68v18.682h-18.68z" fill="#fff"/>
      <path d="M265.706 386.81h16.68v16.682h-16.68z" fill="none" stroke="#000" stroke-width=".73" stroke-miterlimit="10"/>
    </g>
    <g clip-path="url(#U)" transform="matrix(.96658 0 0 -.96658 -70.544 428.989)">
      <path d="M284.37 385.81h18.68v18.682h-18.68z" fill="#fff"/>
      <path d="M285.37 386.81h16.68v16.682h-16.68z" fill="none" stroke="#000" stroke-width=".73" stroke-miterlimit="10"/>
    </g>
    <g clip-path="url(#V)" transform="matrix(.96658 0 0 -.96658 -70.544 428.989)">
      <path d="M304.034 385.81h18.68v18.682h-18.68z" fill="#fff"/>
      <path d="M305.034 386.81h16.68v16.682h-16.68z" fill="none" stroke="#000" stroke-width=".73" stroke-miterlimit="10"/>
    </g>
    <g clip-path="url(#W)" transform="matrix(.96658 0 0 -.96658 -70.544 428.989)">
      <path d="M294.202 366.147h18.68v18.68h-18.68z" fill="#fff"/>
      <path d="M295.202 367.147h16.68v16.68h-16.68z" fill="none" stroke="#000" stroke-width=".73" stroke-miterlimit="10"/>
    </g>
    <g clip-path="url(#X)" transform="matrix(.96658 0 0 -.96658 -70.544 428.989)">
      <path d="M274.538 366.147h18.68v18.68h-18.68z" fill="#fff"/>
      <path d="M275.538 367.147h16.68v16.68h-16.68z" fill="none" stroke="#000" stroke-width=".73" stroke-miterlimit="10"/>
    </g>
    <g clip-path="url(#Y)" transform="matrix(.96658 0 0 -.96658 -70.544 428.989)">
      <path d="M254.874 366.147h18.68v18.68h-18.68z" fill="#fff"/>
      <path d="M255.874 367.147h16.68v16.68h-16.68z" fill="none" stroke="#000" stroke-width=".73" stroke-miterlimit="10"/>
    </g>
    <g clip-path="url(#Z)" transform="matrix(.96658 0 0 -.96658 -70.544 428.989)">
      <path d="M235.21 366.147h18.68v18.68h-18.68z" fill="#fff"/>
      <path d="M236.21 367.147h16.68v16.68h-16.68z" fill="none" stroke="#000" stroke-width=".73" stroke-miterlimit="10"/>
    </g>
    <g clip-path="url(#aa)" transform="matrix(.96658 0 0 -.96658 -70.544 428.989)">
      <path d="M215.546 366.147h18.68v18.68h-18.68z" fill="#fff"/>
      <path d="M216.546 367.147h16.68v16.68h-16.68z" fill="none" stroke="#000" stroke-width=".73" stroke-miterlimit="10"/>
    </g>
    <g clip-path="url(#ab)" transform="matrix(.96658 0 0 -.96658 -70.544 428.989)">
      <path d="M195.882 366.147h18.681v18.68h-18.68z" fill="#fff"/>
      <path d="M196.882 367.147h16.681v16.68h-16.68z" fill="none" stroke="#000" stroke-width=".73" stroke-miterlimit="10"/>
    </g>
    <g clip-path="url(#ac)" transform="matrix(.96658 0 0 -.96658 -70.544 428.989)">
      <path d="M176.219 366.147h18.68v18.68h-18.68z" fill="#fff"/>
      <path d="M177.219 367.147h16.68v16.68h-16.68z" fill="none" stroke="#000" stroke-width=".73" stroke-miterlimit="10"/>
    </g>
    <g clip-path="url(#ad)" transform="matrix(.96658 0 0 -.96658 -70.544 428.989)">
      <path d="M156.555 366.147h18.68v18.68h-18.68z" fill="#fff"/>
      <path d="M157.555 367.147h16.68v16.68h-16.68z" fill="none" stroke="#000" stroke-width=".73" stroke-miterlimit="10"/>
    </g>
    <g clip-path="url(#ae)" transform="matrix(.96658 0 0 -.96658 -70.544 428.989)">
      <path d="M136.89 366.147h18.681v18.68h-18.68z" fill="#fff"/>
      <path d="M137.89 367.147h16.681v16.68h-16.68z" fill="none" stroke="#000" stroke-width=".73" stroke-miterlimit="10"/>
    </g>
    <g clip-path="url(#af)" transform="matrix(.96658 0 0 -.96658 -70.544 428.989)">
      <path d="M117.227 366.147h18.68v18.68h-18.68z" fill="#fff"/>
      <path d="M118.227 367.147h16.68v16.68h-16.68z" fill="none" stroke="#000" stroke-width=".73" stroke-miterlimit="10"/>
    </g>
    <g clip-path="url(#ag)" transform="matrix(.96658 0 0 -.96658 -70.544 428.989)">
      <path d="M72.983 405.475h28.513v18.68H72.983z" fill="#fff"/>
      <path d="M73.983 406.475h26.513v16.68H73.983z" fill="none" stroke="#000" stroke-width=".73" stroke-miterlimit="10"/>
    </g>
    <g clip-path="url(#ah)" transform="matrix(.96658 0 0 -.96658 -70.544 428.989)">
      <text transform="matrix(1 0 0 -1 84.085 413.072)" style="-inkscape-font-specification:ArialUnicodeMS" font-weight="400" font-size="8.849" font-family="'Arial Unicode MS'" stroke-width=".133">
        <tspan x="0" y="0" stroke-width=".365">&#x21E5;</tspan>
      </text>
    </g>
    <g clip-path="url(#ai)" transform="matrix(.96658 0 0 -.96658 -70.544 428.989)">
      <path d="M72.983 385.81h33.429v18.682H72.983z" fill="#fff"/>
      <path d="M73.983 386.81h31.429v16.682H73.983z" fill="none" stroke="#000" stroke-width=".73" stroke-miterlimit="10"/>
    </g>
    <g clip-path="url(#aj)" transform="matrix(.96658 0 0 -.96658 -70.544 428.989)">
      <text transform="matrix(1 0 0 -1 86.543 393.408)" style="-inkscape-font-specification:ArialUnicodeMS" font-weight="400" font-size="8.849" font-family="'Arial Unicode MS'" stroke-width=".133">
        <tspan x="0" y="0" stroke-width=".365">&#x21EA;</tspan>
      </text>
    </g>
    <g clip-path="url(#ak)" transform="matrix(.96658 0 0 -.96658 -70.544 428.989)">
      <path d="M72.983 366.147h43.26v18.68h-43.26z" fill="#a9a9a9"/>
      <path d="M73.983 367.147h41.26v16.68h-41.26z" fill="none" stroke="#000" stroke-width=".73" stroke-miterlimit="10"/>
    </g>
    <g clip-path="url(#al)" transform="matrix(.96658 0 0 -.96658 -70.544 428.989)">
      <text transform="matrix(1 0 0 -1 91.46 373.744)" style="-inkscape-font-specification:ArialUnicodeMS" font-weight="400" font-size="8.849" font-family="'Arial Unicode MS'" stroke-width=".133">
        <tspan x="0" y="0" stroke-width=".365">&#x21E7;</tspan>
      </text>
    </g>
    <g clip-path="url(#am)" transform="matrix(.96658 0 0 -.96658 -70.544 428.989)">
      <path d="M313.865 366.147h48.177v18.68h-48.176z" fill="#a9a9a9"/>
      <path d="M314.865 367.147h46.177v16.68h-46.176z" fill="none" stroke="#000" stroke-width=".73" stroke-miterlimit="10"/>
    </g>
    <g clip-path="url(#an)" transform="matrix(.96658 0 0 -.96658 -70.544 428.989)">
      <text transform="matrix(1 0 0 -1 334.8 373.744)" style="-inkscape-font-specification:ArialUnicodeMS" font-weight="400" font-size="8.849" font-family="'Arial Unicode MS'" stroke-width=".133">
        <tspan x="0" y="0" stroke-width=".365">&#x21E7;</tspan>
      </text>
    </g>
    <g clip-path="url(#ao)" transform="matrix(.96658 0 0 -.96658 -70.544 428.989)">
      <path d="M72.983 346.483H96.58v18.68H72.983z" fill="#fff"/>
      <path d="M73.983 347.483H95.58v16.68H73.983z" fill="none" stroke="#000" stroke-width=".73" stroke-miterlimit="10"/>
    </g>
    <g clip-path="url(#ap)" transform="matrix(.96658 0 0 -.96658 -70.544 428.989)">
      <text transform="matrix(1 0 0 -1 82.353 354.08)" style="-inkscape-font-specification:ArialUnicodeMS" font-weight="400" font-size="8.849" font-family="'Arial Unicode MS'" stroke-width=".133">
        <tspan x="0" y="0" stroke-width=".365">&#x2303;</tspan>
      </text>
    </g>
    <g clip-path="url(#aq)" transform="matrix(.96658 0 0 -.96658 -70.544 428.989)">
      <path d="M97.563 346.483h23.597v18.68H97.563z" fill="#a9a9a9"/>
      <path d="M98.563 347.483h21.597v16.68H98.563z" fill="none" stroke="#000" stroke-width=".73" stroke-miterlimit="10"/>
    </g>
    <g clip-path="url(#ar)" transform="matrix(.96658 0 0 -.96658 -70.544 428.989)">
      <text transform="matrix(1 0 0 -1 104.937 354.08)" style="-inkscape-font-specification:ArialUnicodeMS" font-weight="400" font-size="8.849" font-family="'Arial Unicode MS'" stroke-width=".133">
        <tspan x="0" y="0" stroke-width=".365">&#x2325;</tspan>
      </text>
    </g>
    <g clip-path="url(#as)" transform="matrix(.96658 0 0 -.96658 -70.544 428.989)">
      <path d="M122.143 346.483h23.597v18.68h-23.597z" fill="#fff"/>
      <path d="M123.143 347.483h21.597v16.68h-21.597z" fill="none" stroke="#000" stroke-width=".73" stroke-miterlimit="10"/>
    </g>
    <g clip-path="url(#at)" transform="matrix(.96658 0 0 -.96658 -70.544 428.989)">
      <text transform="matrix(1 0 0 -1 130.491 354.08)" style="-inkscape-font-specification:ArialUnicodeMS" font-weight="400" font-size="8.849" font-family="'Arial Unicode MS'" stroke-width=".133">
        <tspan x="0" y="0" stroke-width=".365">&#x2318;</tspan>
      </text>
    </g>
    <g clip-path="url(#au)" transform="matrix(.96658 0 0 -.96658 -70.544 428.989)">
      <path d="M289.286 346.483h23.596v18.68h-23.596z" fill="#fff"/>
      <path d="M290.286 347.483h21.596v16.68h-21.596z" fill="none" stroke="#000" stroke-width=".73" stroke-miterlimit="10"/>
    </g>
    <g clip-path="url(#av)" transform="matrix(.96658 0 0 -.96658 -70.544 428.989)">
      <text transform="matrix(1 0 0 -1 297.634 354.08)" style="-inkscape-font-specification:ArialUnicodeMS" font-weight="400" font-size="8.849" font-family="'Arial Unicode MS'" stroke-width=".133">
        <tspan x="0" y="0" stroke-width=".365">&#x2318;</tspan>
      </text>
    </g>
    <g clip-path="url(#aw)" transform="matrix(.96658 0 0 -.96658 -70.544 428.989)">
      <path d="M313.865 346.483h23.597v18.68h-23.596z" fill="#a9a9a9"/>
      <path d="M314.865 347.483h21.597v16.68h-21.597z" fill="none" stroke="#000" stroke-width=".73" stroke-miterlimit="10"/>
    </g>
    <g clip-path="url(#ax)" transform="matrix(.96658 0 0 -.96658 -70.544 428.989)">
      <text transform="matrix(1 0 0 -1 321.24 354.08)" style="-inkscape-font-specification:ArialUnicodeMS" font-weight="400" font-size="8.849" font-family="'Arial Unicode MS'" stroke-width=".133">
        <tspan x="0" y="0" stroke-width=".365">&#x2325;</tspan>
      </text>
    </g>
    <g clip-path="url(#ay)" transform="matrix(.96658 0 0 -.96658 -70.544 428.989)">
      <path d="M338.445 346.483h23.597v18.68h-23.597z" fill="#fff"/>
      <path d="M339.445 347.483h21.597v16.68h-21.597z" fill="none" stroke="#000" stroke-width=".73" stroke-miterlimit="10"/>
    </g>
    <g clip-path="url(#az)" transform="matrix(.96658 0 0 -.96658 -70.544 428.989)">
      <text transform="matrix(1 0 0 -1 347.816 354.08)" style="-inkscape-font-specification:ArialUnicodeMS" font-weight="400" font-size="8.849" font-family="'Arial Unicode MS'" stroke-width=".133">
        <tspan x="0" y="0" stroke-width=".365">&#x2303;</tspan>
      </text>
    </g>
    <g clip-path="url(#aA)" transform="matrix(.96658 0 0 -.96658 -70.544 428.989)">
      <path d="M328.613 425.139h33.429v18.68h-33.429z" fill="#fff"/>
      <path d="M329.613 426.139h31.429v16.68h-31.429z" fill="none" stroke="#000" stroke-width=".73" stroke-miterlimit="10"/>
    </g>
    <g clip-path="url(#aB)" transform="matrix(.96658 0 0 -.96658 -70.544 428.989)">
      <text transform="matrix(1 0 0 -1 340.903 432.736)" style="-inkscape-font-specification:ArialUnicodeMS" font-weight="400" font-size="8.849" font-family="'Arial Unicode MS'" stroke-width=".133">
        <tspan x="0" y="0" stroke-width=".365">&#x232B;</tspan>
      </text>
    </g>
    <g clip-path="url(#aC)" transform="matrix(.96658 0 0 -.96658 -70.544 428.989)">
      <path d="M338.445 405.475h23.597v18.68h-23.597z" fill="#fff"/>
      <path d="M339.445 406.475h21.597v16.68h-21.597z" fill="none" stroke="#000" stroke-width=".73" stroke-miterlimit="10"/>
    </g>
    <g clip-path="url(#aD)" transform="matrix(.96658 0 0 -.96658 -70.544 428.989)">
      <path d="M323.697 385.81h38.345v18.682h-38.344z" fill="#fff"/>
      <path d="M324.697 386.81h36.345v16.682h-36.344z" fill="none" stroke="#000" stroke-width=".73" stroke-miterlimit="10"/>
    </g>
    <g clip-path="url(#aE)" transform="matrix(.96658 0 0 -.96658 -70.544 428.989)">
      <text transform="matrix(1 0 0 -1 339.716 393.408)" style="-inkscape-font-specification:ArialUnicodeMS" font-weight="400" font-size="8.849" font-family="'Arial Unicode MS'" stroke-width=".133">
        <tspan x="0" y="0" stroke-width=".365">&#x21A9;</tspan>
      </text>
    </g>
    <g clip-path="url(#aF)" transform="matrix(.96658 0 0 -.96658 -70.544 428.989)">
      <path d="M146.723 346.483h141.58v18.68h-141.58z" fill="#fff"/>
      <path d="M147.723 347.483h139.58v16.68h-139.58z" fill="none" stroke="#000" stroke-width=".73" stroke-miterlimit="10"/>
    </g>
    <g clip-path="url(#c)" transform="matrix(.96658 0 0 -.96658 -89.555 430.161)">
      <text transform="scale(1 -1)" style="-inkscape-font-specification:ArialUnicodeMS" font-weight="400" font-size="8.849" font-family="'Arial Unicode MS'" stroke-width=".133" x="99.403" y="-432.736">
        <tspan x="99.403" y="-432.736">~</tspan>
      </text>
    </g>
  </g>
</svg>
